<?xml version="1.0" encoding="UTF-8"?>
<svg id="Layer_1" data-name="Layer 1" xmlns="http://www.w3.org/2000/svg" viewBox="0 0 400 400">
  <defs>
    <style>
      .cls-1 {
        fill: none;
        stroke: #000;
        stroke-linecap: round;
        stroke-linejoin: round;
        stroke-width: 4.75px;
      }
    </style>
  </defs>
  <g>
    <g>
      <path class="cls-1" d="m258.29,331.7c0-32.2-26.11-43.85-58.29-43.85s-58.3,11.65-58.3,43.85"/>
      <path class="cls-1" d="m200.01,268.45c18.83,0,34.1-15.27,34.1-34.09s-15.27-34.11-34.1-34.11-34.1,15.26-34.1,34.11,15.26,34.09,34.1,34.09Z"/>
    </g>
    <g>
      <path class="cls-1" d="m390,331.7c0-32.2-26.09-43.85-58.27-43.85s-58.3,11.65-58.3,43.85"/>
      <path class="cls-1" d="m331.73,268.45c18.82,0,34.1-15.27,34.1-34.09s-15.27-34.11-34.1-34.11-34.1,15.26-34.1,34.11,15.26,34.09,34.1,34.09Z"/>
    </g>
    <g>
      <path class="cls-1" d="m126.57,331.7c0-32.2-26.09-43.85-58.29-43.85s-58.29,11.65-58.29,43.85"/>
      <path class="cls-1" d="m68.29,200.25c-18.83,0-34.09,15.26-34.09,34.11s15.27,34.09,34.09,34.09,34.1-15.27,34.1-34.09-15.26-34.11-34.1-34.11Z"/>
    </g>
  </g>
  <g>
    <path class="cls-1" d="m236.48,163.03c-9.99-4.99-22.67-7.13-36.48-7.13s-26.5,2.14-36.49,7.13"/>
    <path class="cls-1" d="m200.01,136.5c18.83,0,34.1-15.27,34.1-34.09s-15.27-34.11-34.1-34.11-34.1,15.26-34.1,34.11,15.26,34.09,34.1,34.09Z"/>
  </g>
  <g>
    <g>
      <path class="cls-1" d="m134.97,215.8c18.83,0,34.11-15.27,34.11-34.09s-15.27-34.11-34.11-34.11-34.1,15.25-34.1,34.11,15.27,34.09,34.1,34.09Z"/>
      <path class="cls-1" d="m165.73,240.74c-8.93-3.25-19.46-4.68-30.75-4.68-12.38,0-23.86,1.73-33.31,5.69"/>
    </g>
    <g>
      <path class="cls-1" d="m265.03,215.8c18.84,0,34.1-15.27,34.1-34.09s-15.26-34.11-34.1-34.11-34.1,15.25-34.1,34.11,15.26,34.09,34.1,34.09Z"/>
      <path class="cls-1" d="m297.37,240.74c-8.92-3.25-19.46-4.68-30.74-4.68-12.38,0-23.86,1.73-33.3,5.69"/>
    </g>
  </g>
</svg>